<?xml version="1.0" standalone="no"?><!DOCTYPE svg PUBLIC "-//W3C//DTD SVG 1.1//EN" "http://www.w3.org/Graphics/SVG/1.1/DTD/svg11.dtd"><svg t="1749978873560" class="icon" viewBox="0 0 1024 1024" version="1.1" xmlns="http://www.w3.org/2000/svg" p-id="17994" xmlns:xlink="http://www.w3.org/1999/xlink" width="200" height="200"><path d="M512.027591 967.111111a155.875556 155.875556 0 0 1-116.906667-52.935111L39.224036 509.838222a157.866667 157.866667 0 0 1-12.401778-192.170666L174.648036 97.564444A155.619556 155.619556 0 0 1 303.984924 28.444444H719.95648c51.911111 0 100.266667 25.827556 129.336889 69.12l147.939555 220.103112a157.866667 157.866667 0 0 1-12.401777 192.170666L628.962702 914.204444A155.875556 155.875556 0 0 1 512.027591 967.111111z m0-206.364444a123.960889 123.960889 0 0 0 92.814222-41.984l255.288889-290.104889a42.666667 42.666667 0 0 0-3.697778-60.017778 42.040889 42.040889 0 0 0-59.648 3.697778l-255.288888 290.076444a38.684444 38.684444 0 0 1-29.468445 13.340445 38.684444 38.684444 0 0 1-29.468444-13.368889L227.270258 372.337778a42.040889 42.040889 0 0 0-59.676445-3.697778 42.666667 42.666667 0 0 0-3.669333 60.046222l255.288889 290.104889A123.960889 123.960889 0 0 0 512.027591 760.746667z" fill="#1296db" p-id="17995"></path></svg>