<?xml version="1.0" standalone="no"?><!DOCTYPE svg PUBLIC "-//W3C//DTD SVG 1.1//EN" "http://www.w3.org/Graphics/SVG/1.1/DTD/svg11.dtd"><svg t="1749978778519" class="icon" viewBox="0 0 1024 1024" version="1.1" xmlns="http://www.w3.org/2000/svg" p-id="12266" xmlns:xlink="http://www.w3.org/1999/xlink" width="200" height="200"><path d="M993.432836 1024H30.567164V825.313433h962.865672zM76.41791 978.149254H947.58209v-106.985075H76.41791zM993.432836 412.656716H30.567164V222.528955l13.143881-6.419104C497.633433 0 505.275224 0 512 0s14.366567 0 468.288955 216.109851l13.143881 6.419104zM76.41791 366.80597H947.58209V251.26209c-161.394627-76.723582-392.482388-185.848358-435.58209-203.882986-43.099701 18.034627-275.104478 127.159403-435.58209 203.882986z" fill="#1296db" p-id="12267"></path><path d="M229.253731 871.164179H122.268657V366.80597h106.985074z m-61.134328-45.850746H183.402985V412.962388h-15.283582zM453.311045 871.164179h-106.985075V366.80597h106.985075z m-61.134329-45.850746h15.283583V412.962388h-15.283583zM677.67403 871.164179h-106.985075V366.80597h106.985075z m-61.134329-45.850746h15.283583V412.962388h-15.283583zM901.731343 871.164179H794.746269V366.80597h106.985074z m-61.134328-45.850746h15.283582V412.962388h-15.283582z" fill="#1296db" p-id="12268"></path></svg>