<?xml version="1.0" standalone="no"?><!DOCTYPE svg PUBLIC "-//W3C//DTD SVG 1.1//EN" "http://www.w3.org/Graphics/SVG/1.1/DTD/svg11.dtd"><svg t="1749978743069" class="icon" viewBox="0 0 1024 1024" version="1.1" xmlns="http://www.w3.org/2000/svg" p-id="11096" xmlns:xlink="http://www.w3.org/1999/xlink" width="200" height="200"><path d="M192.937743 896.620059h638.124514c42.255846 0 63.689971 21.434125 63.689971 63.68997s-21.434125 63.689971-63.689971 63.689971H192.937743c-42.255846 0-63.689971-21.434125-63.689971-63.689971s21.434125-63.689971 63.689971-63.68997z" p-id="11097" fill="#1296db"></path><path d="M920.166976 0H103.833024A102.455116 102.455116 0 0 0 1.561629 102.271395v586.682615a102.455116 102.455116 0 0 0 102.271395 102.271395H920.166976a102.455116 102.455116 0 0 0 102.271395-102.271395V102.271395A102.455116 102.455116 0 0 0 920.166976 0z m-224.200945 598.502003a88.002392 88.002392 0 0 1-72.508582-137.852042L601.717122 440.930566a94.616351 94.616351 0 0 1-122.480713 6.124036l-12.248071 12.248071a124.685366 124.685366 0 1 1-12.248071-12.248071l11.513187-12.248071a94.800072 94.800072 0 0 1-3.919383-122.113271l-17.1473-15.677531a96.086119 96.086119 0 1 1 13.595359-11.819389l15.861253 14.513964a94.861312 94.861312 0 0 1 123.031876-1.592249l17.575982-18.372107a76.917888 76.917888 0 1 1 11.513187 14.207763l-16.412416 17.024819a94.983793 94.983793 0 0 1 3.613181 116.540398l21.127923 19.535674a87.941152 87.941152 0 1 1 60.872915 151.447401z" p-id="11098" fill="#1296db"></path></svg>