<?xml version="1.0" standalone="no"?><!DOCTYPE svg PUBLIC "-//W3C//DTD SVG 1.1//EN" "http://www.w3.org/Graphics/SVG/1.1/DTD/svg11.dtd"><svg t="1749978704030" class="icon" viewBox="0 0 1029 1024" version="1.1" xmlns="http://www.w3.org/2000/svg" p-id="9957" xmlns:xlink="http://www.w3.org/1999/xlink" width="200.9765625" height="200"><path d="M885.584753 659.222575l6.159839 2.468936 117.300921 59.234445a36.469043 36.469043 0 0 1 5.752849 61.730379l-5.752849 3.499908-446.984267 226.166064a104.738251 104.738251 0 0 1-84.685777 4.530881l-10.148734-4.530881L20.296467 786.156243a36.469043 36.469043 0 0 1-5.72485-61.649381l5.72485-3.499908 117.220923-59.316443a36.876032 36.876032 0 0 1 47.728747 13.159654 36.414044 36.414044 0 0 1-8.76377 48.488727l-5.643852 3.527908-52.858612 26.6733L500.57486 947.172017a30.933188 30.933188 0 0 0 22.711404 2.197942l5.589853-2.197942 382.404962-193.630917-52.776615-26.6733a36.496042 36.496042 0 0 1-18.587512-43.007871l2.414937-6.131839a36.794034 36.794034 0 0 1 43.41586-18.505515z m0-241.740654l6.159839 2.496935 117.219923 59.369441a36.469043 36.469043 0 0 1 5.670851 61.649382l-5.670851 3.499908-446.848271 226.084065a104.169266 104.169266 0 0 1-84.903771 4.531881l-10.066736-4.531881-446.930268-226.084065a36.469043 36.469043 0 0 1-5.725849-61.648382l5.670851-3.499908 117.220923-59.370441a36.849033 36.849033 0 0 1 47.728747 13.132655 36.441043 36.441043 0 0 1-8.790769 48.488727l-5.426858 3.527907-52.858612 26.754298 382.594956 193.630917a30.363203 30.363203 0 0 0 22.630406 2.197943l5.589854-2.279941L911.22608 511.802445l-52.775614-26.754298a36.496042 36.496042 0 0 1-18.505515-43.088868l2.495935-6.051842a36.821033 36.821033 0 0 1 43.224865-18.505514zM467.226735 11.389581a104.684252 104.684252 0 0 1 94.970507 0l446.984267 226.219062a36.469043 36.469043 0 0 1 0 65.12229l-446.984267 226.164064a104.847248 104.847248 0 0 1-94.970507 0L20.160471 302.86793a36.469043 36.469043 0 0 1 0-65.123291z m56.00553 63.005346a30.716194 30.716194 0 0 0-22.765402 2.197942L117.871906 270.142789 500.466863 463.691708a30.960187 30.960187 0 0 0 22.792401 2.197942l5.426858-2.197942 382.594957-193.548919L528.686122 76.592869z m0 0" p-id="9958" fill="#1296db"></path></svg>