<?xml version="1.0" standalone="no"?><!DOCTYPE svg PUBLIC "-//W3C//DTD SVG 1.1//EN" "http://www.w3.org/Graphics/SVG/1.1/DTD/svg11.dtd"><svg t="1749747478777" class="icon" viewBox="0 0 1273 1024" version="1.1" xmlns="http://www.w3.org/2000/svg" p-id="13588" xmlns:xlink="http://www.w3.org/1999/xlink" width="248.6328125" height="200"><path d="M1162.378378 0H110.702703C49.816216 0 0 49.816216 0 110.702703v664.216216c0 60.886486 49.816216 110.702703 110.702703 110.702703h498.162162v83.027027h-249.081081v55.351351h553.513513v-55.351351h-249.081081v-83.027027h498.162162c60.886486 0 110.702703-49.816216 110.702703-110.702703V110.702703c0-60.886486-49.816216-110.702703-110.702703-110.702703z m55.351352 774.918919c0 30.443243-24.908108 55.351351-55.351352 55.351351H110.702703c-30.443243 0-55.351351-24.908108-55.351352-55.351351v-27.675676h1162.378379v27.675676z m0-83.027027H55.351351V110.702703c0-30.443243 24.908108-55.351351 55.351352-55.351352h1051.675675c30.443243 0 55.351351 24.908108 55.351352 55.351352v581.189189z" p-id="13589" fill="#1296db"></path><path d="M636.540541 166.054054c0-30.443243-24.908108-55.351351-55.351352-55.351351h-221.405405c-30.443243 0-55.351351 24.908108-55.351352 55.351351v55.351351h332.108109V166.054054zM304.432432 581.189189c0 30.443243 24.908108 55.351351 55.351352 55.351352h553.513513c30.443243 0 55.351351-24.908108 55.351352-55.351352V249.081081H304.432432v332.108108z m326.572973 16.605406c-16.605405 0-30.443243-13.837838-30.443243-33.210811s13.837838-33.210811 30.443243-33.210811c16.605405 0 30.443243 16.605405 30.443244 33.210811 0 19.372973-13.837838 33.210811-30.443244 33.210811z m5.535136-260.151352c38.745946 0 69.189189 19.372973 66.421621 60.886487 0 47.048649-58.118919 63.654054-52.583784 110.702702H608.864865c-5.535135-52.583784 49.816216-71.956757 49.816216-105.167567 0-16.605405-11.07027-27.675676-27.675676-27.675676-13.837838 0-24.908108 8.302703-35.978378 19.372973l-27.675676-24.908108c16.605405-19.372973 41.513514-33.210811 69.18919-33.210811z" p-id="13590" fill="#1296db"></path></svg>