<?xml version="1.0" standalone="no"?><!DOCTYPE svg PUBLIC "-//W3C//DTD SVG 1.1//EN" "http://www.w3.org/Graphics/SVG/1.1/DTD/svg11.dtd"><svg t="1749735970446" class="icon" viewBox="0 0 1024 1024" version="1.1" xmlns="http://www.w3.org/2000/svg" p-id="2351" xmlns:xlink="http://www.w3.org/1999/xlink" width="200" height="200"><path d="M731.830857 644.022857h-46.226286l-16.420571-15.798857a378.88 378.88 0 0 0 91.940571-247.661714C761.124571 170.386286 590.738286 0 380.562286 0 170.386286 0 0 170.386286 0 380.562286c0 210.176 170.386286 380.562286 380.562286 380.562285a378.88 378.88 0 0 0 247.661714-91.940571l15.798857 16.420571v46.226286L936.777143 1024 1024 936.777143l-292.169143-292.754286z m-351.268571 0a263.094857 263.094857 0 0 1-263.460572-263.460571 263.094857 263.094857 0 0 1 263.460572-263.460572 263.094857 263.094857 0 0 1 263.460571 263.460572 263.094857 263.094857 0 0 1-263.460571 263.460571z" fill="#1296db" p-id="2352"></path></svg>