<?xml version="1.0" standalone="no"?><!DOCTYPE svg PUBLIC "-//W3C//DTD SVG 1.1//EN" "http://www.w3.org/Graphics/SVG/1.1/DTD/svg11.dtd"><svg t="1749747436290" class="icon" viewBox="0 0 1024 1024" version="1.1" xmlns="http://www.w3.org/2000/svg" p-id="11406" xmlns:xlink="http://www.w3.org/1999/xlink" width="200" height="200"><path d="M774.656 994.816H52.224c-25.088 0-45.056-20.48-45.056-45.056V71.68c0-25.088 20.48-45.056 45.056-45.056h722.432c25.088 0 45.056 20.48 45.056 45.056v878.08c0.512 25.088-19.968 45.056-45.056 45.056z" fill="#ECEFF1" p-id="11407"></path><path d="M628.736 795.136H921.6v202.24h-292.864v-202.24z" fill="#ECEFF1" p-id="11408"></path><path d="M926.72 997.376h-15.872c-49.664 0-90.624-40.448-90.624-90.624V259.584h151.552c25.088 0 45.056 20.48 45.056 45.056v602.112c0 50.176-40.448 90.624-90.112 90.624zM677.888 743.936H137.216c-12.288 0-22.528-10.24-22.528-22.528v-2.56c0-12.288 10.24-22.528 22.528-22.528h540.672c12.288 0 22.528 10.24 22.528 22.528v2.56c0.512 12.288-9.728 22.528-22.528 22.528z m0 95.744H137.216c-12.288 0-22.528-10.24-22.528-22.528v-3.072c0-12.288 10.24-22.528 22.528-22.528h540.672c12.288 0 22.528 10.24 22.528 22.528v2.56c0.512 12.8-9.728 23.04-22.528 23.04z m0-382.976H460.288c-12.288 0-22.528-10.24-22.528-22.528v-2.56c0-12.288 10.24-22.528 22.528-22.528h217.6c12.288 0 22.528 10.24 22.528 22.528v2.56c0.512 12.288-9.728 22.528-22.528 22.528z m0 95.744H460.288c-12.288 0-22.528-10.24-22.528-22.528v-2.56c0-12.288 10.24-22.528 22.528-22.528h217.6c12.288 0 22.528 10.24 22.528 22.528v2.56c0.512 12.288-9.728 22.528-22.528 22.528z m0 95.744H460.288c-12.288 0-22.528-10.24-22.528-22.528v-2.56c0-12.288 10.24-22.528 22.528-22.528h217.6c12.288 0 22.528 10.24 22.528 22.528v2.56c0.512 12.288-9.728 22.528-22.528 22.528z" fill="#CFD8DC" p-id="11409"></path><path d="M331.264 648.192H137.216c-12.288 0-22.528-10.24-22.528-22.528V431.616c0-12.288 10.24-22.528 22.528-22.528h194.048c12.288 0 22.528 10.24 22.528 22.528v194.048c0 12.288-10.24 22.528-22.528 22.528z" fill="#90CAF9" p-id="11410"></path><path d="M352.768 473.6l-61.952 50.176c-11.264 9.216-27.648 8.704-38.4-1.536l-22.528-21.504C211.968 483.84 184.32 482.304 163.84 496.64l-49.152 35.328v27.648l62.464-44.544c11.264-8.192 27.136-7.168 36.864 2.56l22.528 21.504c18.944 17.92 48.128 18.944 68.096 2.56l47.616-38.4 0.512-29.696z" fill="#2196F3" p-id="11411"></path><path d="M137.728 159.232l68.608 100.352h1.024V159.232H230.4v138.752h-22.016L138.24 196.608h-1.024v101.376h-22.528V159.232h23.04zM338.432 209.92c9.216 9.728 13.824 22.528 13.824 37.888s-4.608 28.16-13.824 37.888c-9.216 10.24-22.016 15.36-36.864 15.36-15.36 0-27.648-5.12-36.864-15.36-9.216-9.728-13.824-22.528-13.824-37.888s4.608-28.16 13.824-37.888c9.216-10.24 21.504-14.848 36.864-14.848s27.648 4.608 36.864 14.848z m-57.856 13.824c-4.096 6.144-6.656 14.336-6.656 24.064 0 9.728 2.048 17.92 6.656 24.064 5.12 7.168 12.288 10.752 21.504 10.752 9.216 0 16.384-3.584 21.504-10.752 4.096-6.656 6.656-14.336 6.656-24.064 0-9.728-2.56-17.92-6.656-24.064-5.12-7.168-12.288-10.752-21.504-10.752-9.728 0-16.384 3.584-21.504 10.752zM403.456 197.632h22.528v18.432h-22.528v56.832c0 2.56 0.512 4.096 1.536 5.632 1.024 1.024 2.56 1.536 5.12 1.536h13.312v18.432h-16.896c-8.704 0-15.36-2.56-19.456-7.168-4.096-4.096-5.632-10.24-5.632-18.432V216.064H363.52v-18.432h17.92V174.08l22.016-9.216v32.768zM468.48 160.768c2.56 2.56 4.096 6.144 4.096 10.752 0 4.096-1.536 8.192-4.608 10.752-3.072 2.56-6.656 4.096-10.752 4.096s-7.68-1.536-10.752-4.096c-3.072-3.072-4.096-6.656-4.096-10.752s1.536-7.68 4.096-10.752c3.072-2.56 6.656-4.096 10.752-4.096 4.608 0 8.192 1.536 11.264 4.096z m0 36.864v100.352h-22.016V197.632h22.016zM571.904 203.776c8.192 6.144 12.8 15.36 14.848 28.16h-22.016c-1.536-6.656-4.096-11.264-8.192-14.336-4.096-3.072-9.728-4.608-16.384-4.608-8.192 0-14.336 3.072-19.456 9.216-4.608 6.144-7.168 14.336-7.168 25.6s2.048 19.968 6.656 26.112c4.096 6.144 10.752 9.216 19.456 9.216 14.848 0 23.04-7.168 24.576-22.016h22.016c-2.56 13.824-7.68 23.552-15.36 30.208-7.68 6.656-18.432 9.728-31.232 9.728-15.36 0-27.648-5.12-36.352-15.36-8.192-9.728-12.288-22.528-12.288-37.888s4.096-27.648 12.288-37.376c8.704-10.752 20.992-15.872 36.864-15.872 13.824 0.512 24.064 3.072 31.744 9.216zM685.568 211.456c8.192 10.24 12.288 24.064 12.288 42.496h-75.264c1.024 9.216 3.072 16.384 7.68 21.504s10.752 7.168 18.432 7.168c6.656 0 12.288-1.536 16.384-4.608 3.072-2.56 6.144-6.656 8.704-12.288h22.016c-2.56 9.216-7.168 17.408-13.824 23.552-8.704 7.68-19.968 11.264-33.28 11.264-14.848 0-26.624-4.608-35.84-13.824-9.216-9.728-13.824-22.528-13.824-39.424 0-14.848 4.096-27.648 13.312-37.376 8.704-10.24 20.48-15.36 35.328-15.36 16.896 0.512 29.184 5.632 37.888 16.896z m-54.272 7.68c-4.096 4.096-6.656 10.24-8.192 17.92h51.712c-2.048-16.384-10.752-24.064-26.112-24.064-7.68 0-13.312 2.048-17.408 6.144z" fill="#F44336" p-id="11412"></path></svg>