<?xml version="1.0" standalone="no"?><!DOCTYPE svg PUBLIC "-//W3C//DTD SVG 1.1//EN" "http://www.w3.org/Graphics/SVG/1.1/DTD/svg11.dtd"><svg t="1749747305579" class="icon" viewBox="0 0 1024 1024" version="1.1" xmlns="http://www.w3.org/2000/svg" p-id="6269" xmlns:xlink="http://www.w3.org/1999/xlink" width="200" height="200"><path d="M973.554688 738.625536c-0.715776-1.339392-1.760256-2.49344-2.709504-3.64544l-230.330368-288.2048c-1.04448-1.04448-12.914688-25.89184-42.421248-25.89184L330.75712 420.883456c-19.136512 0-30.456832 13.179904-41.346048 23.05536-1.089536 0.934912-2.220032 1.792-3.201024 2.83648l-230.4 281.878528c-1.028096 1.169408-1.876992 2.307072-2.726912 3.59936-18.966528 24.41216-20.960256 58.514432-7.002112 86.134784 12.275712 27.231232 45.262848 50.989056 72.736768 50.989056 2.710528 0 5.49888-0.202752 8.20224-0.623616 1.565696 0 3.170304-0.233472 4.744192-0.575488l141.72672-48.791552 0 72.425472c0 12.275712 9.884672 22.339584 22.21568 22.339584l447.410176 0c12.275712 0 22.214656-10.063872 22.214656-22.339584l0-70.882304 142.232576 47.529984c1.40288 0.372736 10.17344 1.246208 12.806144 1.246208 23.709696 0 40.16128-12.945408 53.63712-34.148352C994.835456 806.516736 995.163136 766.309376 973.554688 738.625536zM706.724864 639.747072l-32.714752-4.765696c-1.46432-0.32768-2.945024-0.515072-4.36224-0.515072-34.849792-4.765696-67.907584 22.137856-76.039168 60.52352-8.085504 38.805504 10.872832 76.754944 43.40224 88.267776 1.276928 0.80896 2.772992 1.216512 4.159488 1.558528l65.555456 18.163712c0 0-184.2176 50.490368-185.167872 50.304l-188.376064-50.818048 65.27488-30.987264c1.526784-0.3584 2.92864-0.82432 4.21376-1.573888 32.520192-11.47904 51.5584-49.460224 43.425792-88.206336-8.070144-38.447104-41.12896-57.172992-75.954176-52.312064-1.49504 0-2.935808 0.172032-4.416512 0.483328l-33.057792 9.87648L332.667904 491.921408l188.61056 65.69472 185.448448-65.69472L706.726912 639.747072zM526.79168 395.957248c82.721792 0 149.772288-67.050496 149.772288-149.772288 0-82.722816-67.050496-149.773312-149.772288-149.773312-82.722816 0-149.773312 67.050496-149.773312 149.773312C377.018368 328.906752 444.068864 395.957248 526.79168 395.957248z" p-id="6270" fill="#1afa29"></path></svg>