<?xml version="1.0" standalone="no"?><!DOCTYPE svg PUBLIC "-//W3C//DTD SVG 1.1//EN" "http://www.w3.org/Graphics/SVG/1.1/DTD/svg11.dtd"><svg t="1750179481576" class="icon" viewBox="0 0 1024 1024" version="1.1" xmlns="http://www.w3.org/2000/svg" p-id="5820" xmlns:xlink="http://www.w3.org/1999/xlink" width="200" height="200"><path d="M512 512m-501.333333 0a501.333333 501.333333 0 1 0 1002.666666 0 501.333333 501.333333 0 1 0-1002.666666 0Z" fill="#E3E5E7" p-id="5821"></path><path d="M629.589333 213.717333a32.554667 32.554667 0 0 1 36.693334 27.52c2.602667 16.298667-6.826667 23.552-12.8 33.365334-6.570667 9.386667-13.482667 18.56-20.266667 27.776l-0.341333 0.426666a1957.205333 1957.205333 0 0 1 91.093333 5.973334c23.850667 2.133333 46.933333 12.672 64.512 29.44 17.664 16.725333 29.781333 39.594667 33.749333 64 1.066667 6.442667 1.493333 11.562667 2.005334 16.853333l1.536 15.914667c0.938667 10.666667 1.792 21.290667 2.56 31.914666 2.986667 42.581333 4.309333 85.418667 3.413333 128.256a1645.653333 1645.653333 0 0 1-7.936 127.872 116.266667 116.266667 0 0 1-28.885333 66.688c-16.298667 18.346667-38.613333 30.848-62.421334 34.986667l-8.96 1.28-7.68 0.682667-15.488 1.28-30.890666 2.218666c-20.608 1.322667-41.216 2.389333-61.866667 3.157334h-0.512L692.650667 1024h-373.76l85.845333-191.274667a2039.210667 2039.210667 0 0 1-106.24-7.04 108.714667 108.714667 0 0 1-64.768-29.866666 114.773333 114.773333 0 0 1-33.706667-64.256l-1.152-9.130667-0.682666-7.978667-1.28-15.957333-2.090667-31.914667A1667.669333 1667.669333 0 0 1 199.68 410.88c2.218667-24.490667 12.458667-48.213333 28.757333-66.133333 16.213333-18.090667 38.314667-30.378667 61.866667-34.432l8.832-1.194667 7.68-0.682667 15.488-1.237333 30.890667-2.133333c11.946667-0.768 23.978667-1.408 35.968-1.962667a54.101333 54.101333 0 0 1-0.512-0.682667c-6.826667-9.216-13.696-18.346667-20.266667-27.776a62.08 62.08 0 0 0-2.218667-3.413333l-2.389333-3.242667c-5.162667-7.082667-10.24-14.250667-8.192-26.709333a32.554667 32.554667 0 0 1 36.693333-27.52c15.872 2.389333 19.626667 13.909333 26.88 22.826667 6.613333 9.301333 12.970667 18.901333 19.370667 28.416 7.594667 11.733333 15.061333 23.637333 22.101333 35.84a2796.245333 2796.245333 0 0 1 100.693334-0.170667c6.997333-12.117333 14.421333-23.978667 21.973333-35.669333 6.4-9.514667 12.757333-19.114667 19.413333-28.416 7.253333-8.96 11.008-20.437333 26.88-22.826667z m-25.557333 619.733334c-19.626667 0.725333-39.253333 1.28-58.922667 1.493333l-20.693333 51.882667 49.706667 57.685333 29.909333-111.061333z m-196.693333-0.64l30.08 111.701333 49.706666-57.685333-20.778666-52.181334a2520.234667 2520.234667 0 0 1-59.008-1.834666z m253.013333-496.512a2625.066667 2625.066667 0 0 0-305.322667 0.469333l-30.421333 2.133333-15.189333 1.237334-7.594667 0.64-6.4 0.853333a77.909333 77.909333 0 0 0-44.373333 24.746667A82.304 82.304 0 0 0 230.4 413.781333a1634.602667 1634.602667 0 0 0-4.138667 250.794667l2.133334 31.36 1.28 15.658667 0.682666 7.808 0.853334 6.656c2.901333 17.408 11.52 33.706667 24.106666 45.653333a77.226667 77.226667 0 0 0 46.08 21.12c20.181333 1.834667 40.490667 3.285333 60.8 4.48a2609.621333 2609.621333 0 0 0 305.322667-0.341333l30.421333-2.133334 15.189334-1.28 7.594666-0.64 6.4-0.853333c16.896-2.986667 32.682667-11.818667 44.330667-24.789333 11.690667-13.056 18.858667-29.653333 20.565333-47.658667 4.224-41.642667 6.997333-83.456 7.978667-125.184a1363.2 1363.2 0 0 0-3.157333-125.226667 1705.173333 1705.173333 0 0 0-2.432-31.274666l-1.450667-15.616a222.421333 222.421333 0 0 0-1.706667-14.677334 81.322667 81.322667 0 0 0-24.021333-45.653333 77.44 77.44 0 0 0-46.08-21.12c-20.138667-1.877333-40.490667-3.328-60.8-4.565333zM511.744 379.733333c71.338667 0 138.88 2.773333 200.704 8.192a35.754667 35.754667 0 0 1 32 32.426667c4.992 50.517333 7.552 98.730667 7.552 143.274667 0 45.098667-2.56 93.994667-7.68 145.408a35.712 35.712 0 0 1-32 32.426666c-61.952 5.461333-129.28 8.234667-200.021333 8.234667-71.381333 0-139.349333-2.773333-202.154667-8.234667a35.626667 35.626667 0 0 1-32-32.853333 1662.976 1662.976 0 0 1-6.613333-143.872c0-45.397333 2.218667-93.866667 6.570666-143.914667a35.669333 35.669333 0 0 1 32.042667-32.853333 2343.509333 2343.509333 0 0 1 201.6-8.234667z m0 18.858667c-69.76 0-138.965333 2.816-200.064 8.106667a17.066667 17.066667 0 0 0-15.36 15.786666 1645.354667 1645.354667 0 0 0-6.528 142.250667c0 44.8 2.218667 92.672 6.528 142.165333a17.066667 17.066667 0 0 0 15.36 15.786667c61.44 5.333333 130.773333 8.149333 200.618667 8.149333 69.248 0 137.898667-2.816 198.485333-8.149333a17.152 17.152 0 0 0 15.36-15.573333c5.034667-50.773333 7.594667-99.029333 7.594667-143.488 0-43.904-2.56-91.434667-7.509334-141.354667a17.109333 17.109333 0 0 0-15.36-15.530667 2321.834667 2321.834667 0 0 0-199.125333-8.106666z m73.344 188.501333c1.408-4.992 5.973333-7.253333 11.008-6.272 5.333333 1.109333 9.173333 5.546667 8.149333 11.093334l-0.256 1.28-0.256 1.152-0.469333 2.261333a113.237333 113.237333 0 0 1-3.925333 12.970667c-2.133333 5.632-4.821333 11.221333-8.32 16.64a52.138667 52.138667 0 0 1-13.824 14.549333 37.248 37.248 0 0 1-20.48 6.826667 42.922667 42.922667 0 0 1-20.224-4.437334 53.674667 53.674667 0 0 1-15.744-11.989333 80.128 80.128 0 0 1-9.216-12.544 79.786667 79.786667 0 0 1-9.258667 12.544c-4.266667 4.693333-9.557333 8.96-15.744 11.989333-6.144 3.072-13.226667 4.693333-20.266667 4.48a37.248 37.248 0 0 1-20.48-6.826666 52.096 52.096 0 0 1-13.781333-14.634667 86.613333 86.613333 0 0 1-11.093333-25.173333 125.269333 125.269333 0 0 1-1.152-4.394667l-0.512-2.261333-0.213334-1.109334-0.256-1.322666c-1.066667-5.546667 2.816-9.984 8.149334-11.093334 5.034667-1.024 9.6 1.28 11.008 6.272l0.256 0.896 0.426666 1.536 0.512 1.706667a94.250667 94.250667 0 0 0 3.754667 10.282667c1.877333 4.437333 4.096 8.618667 6.613333 12.202666a33.706667 33.706667 0 0 0 8.234667 8.533334 16.768 16.768 0 0 0 9.216 2.986666 22.058667 22.058667 0 0 0 10.368-2.176 35.370667 35.370667 0 0 0 9.685333-7.210666c3.072-3.072 5.888-6.826667 8.362667-10.837334a82.474667 82.474667 0 0 0 5.162667-9.472l0.768-1.578666 0.597333-1.408 0.426667-0.896a9.898667 9.898667 0 0 1 9.258666-5.973334 9.813333 9.813333 0 0 1 9.173334 5.973334l0.426666 0.896 0.554667 1.408 0.768 1.578666a73.045333 73.045333 0 0 0 5.12 9.472c2.56 4.053333 5.333333 7.765333 8.405333 10.837334a35.413333 35.413333 0 0 0 9.685334 7.210666c3.328 1.578667 6.826667 2.304 10.368 2.176a16.768 16.768 0 0 0 9.216-2.986666 33.706667 33.706667 0 0 0 8.234666-8.533334 86.186667 86.186667 0 0 0 10.368-22.485333l0.512-1.706667 0.426667-1.536 0.256-0.896z m-20.778667-92.16c3.072-10.666667 11.306667-17.834667 21.632-14.805333 4.778667 1.450667 9.6 2.858667 14.336 4.437333l7.082667 2.304 7.04 2.432c9.386667 3.285333 18.688 6.784 27.904 10.453334 4.608 1.792 9.216 3.669333 13.781333 5.546666 4.565333 1.962667 9.130667 3.84 13.653334 5.845334a299.52 299.52 0 0 1 20.096 9.813333c2.218667 1.194667 4.352 2.389333 6.613333 3.754667 7.893333 4.778667 9.216 13.482667 6.314667 22.826666-3.413333 10.752-13.056 18.944-23.466667 15.445334l-0.426667-0.128a187.733333 187.733333 0 0 1-13.354666-5.034667l-6.656-2.730667a279.253333 279.253333 0 0 1-6.613334-2.816l-6.613333-2.816-6.570667-2.901333-13.226666-5.632a1897.984 1897.984 0 0 0-26.496-10.965333l-13.226667-5.376c-4.437333-1.792-8.874667-3.413333-13.312-5.205334l-0.512-0.213333c-9.173333-3.797333-11.093333-13.482667-8.021333-24.234667z m-127.829333-14.805333c10.325333-3.029333 18.56 4.181333 21.674667 14.805333 3.114667 10.752 1.152 20.48-7.978667 24.234667l-0.554667 0.213333c-4.394667 1.792-8.832 3.413333-13.226666 5.248l-13.269334 5.333334c-8.832 3.584-17.706667 7.253333-26.496 10.965333l-13.226666 5.632-13.226667 5.717333a281.728 281.728 0 0 1-6.613333 2.816l-6.613334 2.730667a353.450667 353.450667 0 0 1-13.354666 5.034667l-0.426667 0.128c-10.453333 3.498667-20.053333-4.693333-23.466667-15.445334-2.944-9.344-1.621333-18.090667 6.272-22.826666a164.266667 164.266667 0 0 1 13.226667-7.210667 301.226667 301.226667 0 0 1 13.482667-6.357333c4.522667-2.005333 9.130667-3.882667 13.653333-5.802667 4.608-1.92 9.173333-3.84 13.781333-5.589333 9.216-3.669333 18.517333-7.168 27.904-10.453334l7.04-2.432 7.125334-2.304c4.693333-1.578667 9.514667-2.986667 14.293333-4.437333z" fill="#C9CCD0" p-id="5822"></path></svg>